<svg xmlns="http://www.w3.org/2000/svg" viewBox="0 0 349.04 201.99"><defs><style>.cls-1{font-size:167.09px;fill:none;stroke:#fff;stroke-miterlimit:10;stroke-width:7.33px;font-family:Calibri-Bold, Calibri;font-weight:700;letter-spacing:0em;}.cls-2{fill:#fff;}</style></defs><title>logoxFichier 5</title><g id="Calque_2" data-name="Calque 2"><g id="Calque_1-2" data-name="Calque 1"><text class="cls-1" transform="translate(126.89 139.99)">TIK</text><path class="cls-2" d="M106.87,75V46.31a5.07,5.07,0,0,0-5.06-5.07H73.1A5.06,5.06,0,0,0,68,46.31V72.88a5.07,5.07,0,0,1-1.49,3.58l-7.06,7.06A5,5,0,0,1,55.91,85H5.07A5.07,5.07,0,0,0,0,90.07v53a5.07,5.07,0,0,0,5.07,5.07H58a5.07,5.07,0,0,0,5.07-5.07V92.2a5.07,5.07,0,0,1,1.49-3.58l7.05-7.06a5.07,5.07,0,0,1,3.59-1.48h26.57A5.07,5.07,0,0,0,106.87,75ZM80.32,48.46H94.59a5.07,5.07,0,0,1,5.07,5.06V67.8a5.06,5.06,0,0,1-5.07,5.06H80.32a5.06,5.06,0,0,1-5.07-5.06V53.52A5.07,5.07,0,0,1,80.32,48.46ZM50.83,140.9H12.28a5.07,5.07,0,0,1-5.07-5.07V97.28a5.07,5.07,0,0,1,5.07-5.06H50.83a5.07,5.07,0,0,1,5.07,5.06v38.55A5.07,5.07,0,0,1,50.83,140.9Z"/><path class="cls-2" d="M115.4,29.1h-58a3.63,3.63,0,0,0-2.55,1.05L11.36,73.64a3.59,3.59,0,0,0-1.06,2.55v2.16A3.61,3.61,0,0,0,13.91,82l35.31,0a3.61,3.61,0,0,0,2.55-1L62.67,70a3.6,3.6,0,0,0,0-5.1h0a3.6,3.6,0,0,0-5.1,0l-8.79,8.78a3.58,3.58,0,0,1-2.55,1.06h-17a3.61,3.61,0,0,1-2.55-6.16L57.83,37.38a3.58,3.58,0,0,1,2.55-1.06h47.81a3.61,3.61,0,0,1,3.61,3.61V87.81a3.59,3.59,0,0,1-1.06,2.55L79.6,121.5A3.61,3.61,0,0,1,73.44,119v-17a3.58,3.58,0,0,1,1.06-2.55l8.78-8.78a3.6,3.6,0,0,0,0-5.1h0a3.6,3.6,0,0,0-5.1,0L67.28,96.39a3.63,3.63,0,0,0-1,2.55v35.31a3.6,3.6,0,0,0,3.61,3.61H72a3.61,3.61,0,0,0,2.55-1.06L118,93.32a3.61,3.61,0,0,0,1-2.55l0-58.06A3.61,3.61,0,0,0,115.4,29.1Z"/></g></g></svg>