<svg xmlns="http://www.w3.org/2000/svg" viewBox="0 0 211.49 292.56"><defs><style>.cls-1{fill:#ea4811;}</style></defs><title>logoxFichier 3</title><g id="Calque_2" data-name="Calque 2"><g id="Calque_1-2" data-name="Calque 1"><path class="cls-1" d="M42.08,292.56a44.88,44.88,0,0,1-5.36-.26,18.91,18.91,0,0,1-3.85-.78,6.8,6.8,0,0,1-3.27-2.11,5.62,5.62,0,0,1-1.27-3.58V207.89H6.49a5.41,5.41,0,0,1-3.57-1.3A6.89,6.89,0,0,1,1,203.81a13.5,13.5,0,0,1-.81-3.44A35.12,35.12,0,0,1,0,196.09a36.66,36.66,0,0,1,.22-4.38,13.91,13.91,0,0,1,.81-3.5,6.71,6.71,0,0,1,2-2.83,5.59,5.59,0,0,1,3.46-1.16H77.66A5.57,5.57,0,0,1,81,185.31a6.44,6.44,0,0,1,2.15,2.91,14.18,14.18,0,0,1,.81,3.48,39.71,39.71,0,0,1,.21,4.39,37.74,37.74,0,0,1-.21,4.28,13.94,13.94,0,0,1-.81,3.44,6.9,6.9,0,0,1-2,2.86,5.44,5.44,0,0,1-3.44,1.22H55.83v77.94a5.61,5.61,0,0,1-1.28,3.58,6.89,6.89,0,0,1-3.27,2.12,19.42,19.42,0,0,1-3.84.77A44.88,44.88,0,0,1,42.08,292.56ZM35.23,285a13.58,13.58,0,0,0,2.3.42,40.18,40.18,0,0,0,4.55.21,40.18,40.18,0,0,0,4.55-.21,13.37,13.37,0,0,0,2.3-.42V201H76.81a9.68,9.68,0,0,0,.28-1.45,30.4,30.4,0,0,0,.16-3.45,29.91,29.91,0,0,0-.17-3.57,9.44,9.44,0,0,0-.25-1.4H7.32a9.44,9.44,0,0,0-.25,1.4,31.92,31.92,0,0,0-.17,3.57,29.87,29.87,0,0,0,.17,3.45A8.11,8.11,0,0,0,7.35,201H35.23Z"/><path class="cls-1" d="M102.47,292.56a44.77,44.77,0,0,1-5.36-.26,19.17,19.17,0,0,1-3.86-.78A6.82,6.82,0,0,1,90,289.41a5.62,5.62,0,0,1-1.28-3.58V190.47A5.64,5.64,0,0,1,90,186.9a6.86,6.86,0,0,1,3.34-2.13,21.19,21.19,0,0,1,3.81-.77,46.56,46.56,0,0,1,5.33-.25,47.41,47.41,0,0,1,5.4.25,19.82,19.82,0,0,1,3.8.78,6.87,6.87,0,0,1,3.26,2.11,5.6,5.6,0,0,1,1.29,3.58v95.36a5.67,5.67,0,0,1-1.28,3.58,6.89,6.89,0,0,1-3.27,2.12,19.26,19.26,0,0,1-3.8.77A44.7,44.7,0,0,1,102.47,292.56ZM95.62,285a13.61,13.61,0,0,0,2.29.42,40.37,40.37,0,0,0,4.56.21,39.78,39.78,0,0,0,4.58-.21,13.68,13.68,0,0,0,2.27-.42V191.27a14,14,0,0,0-2.27-.41,40,40,0,0,0-4.58-.21,39.16,39.16,0,0,0-4.51.21,14.68,14.68,0,0,0-2.34.43Z"/><path class="cls-1" d="M197.35,292.56a49.77,49.77,0,0,1-7.9-.44,10.38,10.38,0,0,1-4.76-1.88,9,9,0,0,1-2.36-2.84l-24.06-37.8v36.08a5.85,5.85,0,0,1-1.16,3.55,6.73,6.73,0,0,1-3.21,2.22,17.15,17.15,0,0,1-3.9.85,55.89,55.89,0,0,1-10.77,0,17.18,17.18,0,0,1-3.94-.85,7,7,0,0,1-3.17-2.12,5.73,5.73,0,0,1-1.28-3.65V190.55a5.7,5.7,0,0,1,1.28-3.65,6.93,6.93,0,0,1,3.26-2.12,20.26,20.26,0,0,1,3.85-.78A58.12,58.12,0,0,1,150,184a19.82,19.82,0,0,1,3.8.78,6.62,6.62,0,0,1,3.31,2.22,5.87,5.87,0,0,1,1.16,3.55v31.91l23.18-33.65a9.18,9.18,0,0,1,2-2.48,9,9,0,0,1,3.24-1.72,18.17,18.17,0,0,1,3.95-.7c1.39-.11,3.16-.16,5.27-.16a50.32,50.32,0,0,1,5.55.25,18.55,18.55,0,0,1,4,.84,6.87,6.87,0,0,1,3.29,2.23,5.78,5.78,0,0,1,1.16,3.48,9.54,9.54,0,0,1-1.07,4.28c-.53,1-1.45,2.6-2.84,4.76l-.16.23-26.21,34.34,29,43.88a33.34,33.34,0,0,1,2.3,4.79,8.74,8.74,0,0,1,.53,2.77,6.16,6.16,0,0,1-1,3.39,6.49,6.49,0,0,1-3.39,2.48,18.56,18.56,0,0,1-4.09.84A52.53,52.53,0,0,1,197.35,292.56ZM189,284.85a5.26,5.26,0,0,0,1.65.47,42,42,0,0,0,6.7.34,46.6,46.6,0,0,0,4.92-.21,15.18,15.18,0,0,0,2.16-.37.25.25,0,0,0,0-.07,32.28,32.28,0,0,0-1.76-3.57l-31.46-47.56,29.1-38.13c1.48-2.31,2.12-3.46,2.4-4a4.5,4.5,0,0,0,.2-.48,12.64,12.64,0,0,0-2.2-.4,43.25,43.25,0,0,0-4.75-.21c-1.92,0-3.51,0-4.72.14a12.34,12.34,0,0,0-2.44.4,2.52,2.52,0,0,0-.83.39,2.3,2.3,0,0,0-.52.69l-.2.32-29.67,43.06.17.26,30.69,48.23a2,2,0,0,0,.58.71Zm-51.26.15a11.27,11.27,0,0,0,2.3.45,49.83,49.83,0,0,0,9.14,0,11.74,11.74,0,0,0,2.19-.42V191.25a15.4,15.4,0,0,0-2.19-.39,49.83,49.83,0,0,0-9.14,0,14.35,14.35,0,0,0-2.3.41Z"/><path class="cls-1" d="M169.24,61.55V23.07a6.79,6.79,0,0,0-6.79-6.79H124a6.79,6.79,0,0,0-6.79,6.79V58.7a6.8,6.8,0,0,1-2,4.8L105.71,73a6.76,6.76,0,0,1-4.8,2H32.73a6.79,6.79,0,0,0-6.79,6.79v71a6.79,6.79,0,0,0,6.79,6.79h71a6.79,6.79,0,0,0,6.79-6.79V84.6a6.8,6.8,0,0,1,2-4.8L122,70.34a6.76,6.76,0,0,1,4.8-2h35.63A6.79,6.79,0,0,0,169.24,61.55ZM133.63,26h19.14a6.8,6.8,0,0,1,6.8,6.79V51.88a6.81,6.81,0,0,1-6.8,6.8H133.63a6.8,6.8,0,0,1-6.79-6.8V32.74A6.79,6.79,0,0,1,133.63,26ZM94.1,149.9H42.41a6.8,6.8,0,0,1-6.8-6.79V91.42a6.81,6.81,0,0,1,6.8-6.8H94.1a6.8,6.8,0,0,1,6.79,6.8v51.69A6.79,6.79,0,0,1,94.1,149.9Z"/><path class="cls-1" d="M180.68,0H102.89a4.84,4.84,0,0,0-3.42,1.42l-58.3,58.3a4.84,4.84,0,0,0-1.42,3.41V66a4.84,4.84,0,0,0,4.85,4.84l47.34-.06a4.84,4.84,0,0,0,3.42-1.42L110,54.78a4.83,4.83,0,0,0,0-6.84h0a4.83,4.83,0,0,0-6.84,0L91.35,59.72a4.84,4.84,0,0,1-3.42,1.41H65.11a4.83,4.83,0,0,1-3.42-8.25l41.79-41.79a4.8,4.8,0,0,1,3.42-1.42H171a4.84,4.84,0,0,1,4.84,4.84v64.2a4.8,4.8,0,0,1-1.42,3.42l-41.75,41.76a4.84,4.84,0,0,1-8.26-3.42V97.64a4.84,4.84,0,0,1,1.42-3.42L137.6,82.45a4.83,4.83,0,0,0,0-6.84h0a4.83,4.83,0,0,0-6.84,0l-14.6,14.61a4.84,4.84,0,0,0-1.42,3.42V141a4.83,4.83,0,0,0,4.84,4.83h2.83a4.87,4.87,0,0,0,3.42-1.41l58.3-58.3a4.84,4.84,0,0,0,1.42-3.42l0-77.86A4.84,4.84,0,0,0,180.68,0Z"/></g></g></svg>