<svg xmlns="http://www.w3.org/2000/svg" viewBox="0 0 345.37 119.01"><defs><style>.cls-1{fill:#ea4811;}</style></defs><title>logoxFichier 4</title><g id="Calque_2" data-name="Calque 2"><g id="Calque_1-2" data-name="Calque 1"><path class="cls-1" d="M168.25,115a49,49,0,0,1-5.6-.26,21.14,21.14,0,0,1-4-.82,7.22,7.22,0,0,1-3.41-2.21,5.88,5.88,0,0,1-1.33-3.74V26.47H131.05a5.67,5.67,0,0,1-3.74-1.37,7.32,7.32,0,0,1-2-2.91,14.29,14.29,0,0,1-.84-3.59,38.19,38.19,0,0,1-.23-4.47,40.17,40.17,0,0,1,.23-4.59,14,14,0,0,1,.85-3.65,7,7,0,0,1,2.09-3,5.81,5.81,0,0,1,3.62-1.22h74.41a5.86,5.86,0,0,1,3.47,1.14,6.89,6.89,0,0,1,2.24,3A14.48,14.48,0,0,1,212,9.54a38.22,38.22,0,0,1,.23,4.59A36.23,36.23,0,0,1,212,18.6a14.15,14.15,0,0,1-.84,3.6,7.14,7.14,0,0,1-2.12,3,5.73,5.73,0,0,1-3.59,1.28H182.63V108a5.85,5.85,0,0,1-1.34,3.74,7.16,7.16,0,0,1-3.42,2.21,20.57,20.57,0,0,1-4,.82A49.16,49.16,0,0,1,168.25,115Zm-7.16-7.87a14.35,14.35,0,0,0,2.4.44,51.6,51.6,0,0,0,9.52,0,13.92,13.92,0,0,0,2.4-.44V19.25h29.15a8.83,8.83,0,0,0,.29-1.52,30.2,30.2,0,0,0,.18-3.6,32.43,32.43,0,0,0-.18-3.74,10.26,10.26,0,0,0-.26-1.47H131.92a11.84,11.84,0,0,0-.27,1.47,35.05,35.05,0,0,0-.17,3.74,32.51,32.51,0,0,0,.17,3.6,8.83,8.83,0,0,0,.29,1.52h29.15Z"/><path class="cls-1" d="M231.39,115a48.85,48.85,0,0,1-5.6-.26,20.81,20.81,0,0,1-4-.82,7.17,7.17,0,0,1-3.41-2.21A5.83,5.83,0,0,1,217,108V8.25a5.85,5.85,0,0,1,1.34-3.74,7.22,7.22,0,0,1,3.48-2.22,21.36,21.36,0,0,1,4-.8,47.89,47.89,0,0,1,5.57-.27,48.91,48.91,0,0,1,5.65.27,20.39,20.39,0,0,1,4,.81,7.33,7.33,0,0,1,3.41,2.2,5.94,5.94,0,0,1,1.34,3.75V108a5.9,5.9,0,0,1-1.33,3.74A7.25,7.25,0,0,1,241,113.9a20.58,20.58,0,0,1-4,.82A49,49,0,0,1,231.39,115Zm-7.16-7.87a14.13,14.13,0,0,0,2.4.44,51.93,51.93,0,0,0,9.55,0,14,14,0,0,0,2.37-.44v-98a15.15,15.15,0,0,0-2.37-.44,43.29,43.29,0,0,0-4.79-.22,42.34,42.34,0,0,0-4.71.22,16.71,16.71,0,0,0-2.45.45Z"/><path class="cls-1" d="M330.58,115a52.33,52.33,0,0,1-8.25-.46,10.77,10.77,0,0,1-5-2,9.31,9.31,0,0,1-2.46-3L289.73,70.07v37.72a6.15,6.15,0,0,1-1.21,3.71,7,7,0,0,1-3.36,2.33,18.25,18.25,0,0,1-4.08.89,61,61,0,0,1-11.25,0,18.4,18.4,0,0,1-4.12-.89,7.42,7.42,0,0,1-3.32-2.22,6,6,0,0,1-1.33-3.82V8.34a6,6,0,0,1,1.33-3.83A7.32,7.32,0,0,1,265.8,2.3a20.78,20.78,0,0,1,4-.81,58.73,58.73,0,0,1,11.25,0,20.23,20.23,0,0,1,4,.81,6.9,6.9,0,0,1,3.46,2.32,6.12,6.12,0,0,1,1.22,3.72V41.7L314,6.52a9.1,9.1,0,0,1,5.5-4.4,19.88,19.88,0,0,1,4.13-.73c1.46-.11,3.31-.17,5.51-.17a51.53,51.53,0,0,1,5.8.27,19.14,19.14,0,0,1,4.17.87,7.1,7.1,0,0,1,3.44,2.34,6,6,0,0,1,1.22,3.64,9.92,9.92,0,0,1-1.12,4.46c-.55,1.1-1.52,2.73-3,5l-.17.24-27.41,35.9L342.41,99.8a35,35,0,0,1,2.4,5,9.08,9.08,0,0,1,.56,2.9,6.4,6.4,0,0,1-1,3.54,6.69,6.69,0,0,1-3.54,2.59,19.23,19.23,0,0,1-4.27.88A54.67,54.67,0,0,1,330.58,115Zm-8.72-8.06a5.31,5.31,0,0,0,1.72.5,45.35,45.35,0,0,0,7,.35,47.78,47.78,0,0,0,5.15-.22,14.4,14.4,0,0,0,2.26-.39.25.25,0,0,0,0-.07,31.62,31.62,0,0,0-1.84-3.73l-32.9-49.73,30.43-39.86c1.55-2.42,2.22-3.61,2.51-4.19a3.45,3.45,0,0,0,.21-.51,13.26,13.26,0,0,0-2.3-.41,44.07,44.07,0,0,0-5-.23c-2,0-3.67.05-4.93.16a12.25,12.25,0,0,0-2.55.41,2.92,2.92,0,0,0-.87.41,2.51,2.51,0,0,0-.54.72l-.21.33-31,45,.17.28,32.09,50.42a2.06,2.06,0,0,0,.61.74Zm-53.59.16a11.83,11.83,0,0,0,2.4.47,41.33,41.33,0,0,0,4.76.22,40.72,40.72,0,0,0,4.79-.22,12.81,12.81,0,0,0,2.29-.44v-98a15,15,0,0,0-2.29-.42,43.29,43.29,0,0,0-4.79-.22,43.87,43.87,0,0,0-4.76.22,15.51,15.51,0,0,0-2.4.44Z"/><path class="cls-1" d="M106.87,45.91V17.21a5.07,5.07,0,0,0-5.06-5.07H73.1A5.06,5.06,0,0,0,68,17.21V43.78a5.07,5.07,0,0,1-1.49,3.58l-7.06,7a5.06,5.06,0,0,1-3.58,1.49H5.07A5.07,5.07,0,0,0,0,61v53A5.07,5.07,0,0,0,5.07,119H58a5.07,5.07,0,0,0,5.07-5.07V63.1a5.06,5.06,0,0,1,1.49-3.58l7.05-7.06A5.08,5.08,0,0,1,75.24,51h26.57A5.06,5.06,0,0,0,106.87,45.91ZM80.32,19.35H94.59a5.07,5.07,0,0,1,5.07,5.07V38.69a5.07,5.07,0,0,1-5.07,5.07H80.32a5.07,5.07,0,0,1-5.07-5.07V24.42A5.07,5.07,0,0,1,80.32,19.35ZM50.83,111.8H12.28a5.07,5.07,0,0,1-5.07-5.07V68.18a5.07,5.07,0,0,1,5.07-5.07H50.83a5.07,5.07,0,0,1,5.07,5.07v38.55A5.07,5.07,0,0,1,50.83,111.8Z"/><path class="cls-1" d="M115.4,0h-58a3.59,3.59,0,0,0-2.55,1.06L11.36,44.54a3.58,3.58,0,0,0-1.06,2.55v2.16a3.61,3.61,0,0,0,3.61,3.61l35.31,0a3.58,3.58,0,0,0,2.55-1.06l10.9-10.89a3.6,3.6,0,0,0,0-5.1h0a3.6,3.6,0,0,0-5.1,0l-8.79,8.78a3.61,3.61,0,0,1-2.55,1.05h-17a3.61,3.61,0,0,1-2.55-6.16L57.83,8.27a3.58,3.58,0,0,1,2.55-1.06h47.81a3.61,3.61,0,0,1,3.61,3.61V58.7a3.62,3.62,0,0,1-1.06,2.56L79.6,92.4a3.61,3.61,0,0,1-6.16-2.56v-17a3.61,3.61,0,0,1,1.06-2.55l8.78-8.78a3.6,3.6,0,0,0,0-5.1h0a3.6,3.6,0,0,0-5.1,0L67.28,67.28a3.65,3.65,0,0,0-1,2.56v35.31a3.61,3.61,0,0,0,3.61,3.61H72a3.7,3.7,0,0,0,2.55-1.06L118,64.22a3.64,3.64,0,0,0,1-2.55l0-58.06A3.6,3.6,0,0,0,115.4,0Z"/></g></g></svg>